<svg width="83" height="83" viewBox="0 0 83 83" fill="none" xmlns="http://www.w3.org/2000/svg">
<circle cx="41.3911" cy="41.8438" r="41" fill="#10146B" fill-opacity="0.2"/>
<path d="M58.6056 33.8578C58.6563 33.4614 58.6827 33.065 58.6827 32.6709C58.6827 27.2514 53.9583 22.9025 48.7157 23.6383C47.188 20.8295 44.2779 19.0024 41.046 19.0024C37.814 19.0024 34.9039 20.8295 33.3762 23.6383C28.1226 22.9025 23.4092 27.2514 23.4092 32.6709C23.4092 33.065 23.4356 33.4614 23.4864 33.8578C20.7681 35.4388 19 38.4459 19 41.7833C19 45.1206 20.7681 48.1277 23.4864 49.7087C23.4355 50.1022 23.4097 50.4986 23.4092 50.8956C23.4092 56.3151 28.1226 60.6526 33.3762 59.9282C34.9039 62.7371 37.814 64.5641 41.046 64.5641C44.2779 64.5641 47.188 62.7371 48.7157 59.9282C53.9583 60.6526 58.6827 56.3151 58.6827 50.8956C58.6827 50.5015 58.6563 50.1051 58.6056 49.7087C61.3238 48.1277 63.0919 45.1206 63.0919 41.7833C63.0919 38.4459 61.3238 35.4388 58.6056 33.8578ZM38.7421 51.8433L30.6579 43.3825L33.7972 40.184L38.773 45.3917L48.3123 35.6097L51.4164 38.8445L38.7421 51.8433V51.8433Z" fill="#10146B"/>
</svg>
